<svg xmlns="http://www.w3.org/2000/svg" viewBox="0 0 64 64" fill="none">
  <defs>
    <linearGradient id="rydeBg" x1="10" y1="8" x2="54" y2="56" gradientUnits="userSpaceOnUse">
      <stop stop-color="#2563EB" />
      <stop offset="1" stop-color="#103F68" />
    </linearGradient>
    <linearGradient id="rydeRoad" x1="32" y1="20" x2="32" y2="47" gradientUnits="userSpaceOnUse">
      <stop stop-color="#F8FBFF" />
      <stop offset="1" stop-color="#DBEAFE" />
    </linearGradient>
  </defs>
  <rect x="6" y="6" width="52" height="52" rx="18" fill="url(#rydeBg)" />
  <path
    d="M22 46V18H34.2C41.1 18 45 21.5 45 27.5C45 32 42.7 35 38.4 36.3L46 46H38.7L32.1 37.3H28.2V46H22Z"
    fill="white"
  />
  <path
    d="M28.2 31.7H33.3C37 31.7 39.1 30.2 39.1 27.4C39.1 24.5 37 23.1 33.3 23.1H28.2V31.7Z"
    fill="url(#rydeRoad)"
  />
  <circle cx="45.5" cy="45.5" r="6.5" fill="#F4F8FF" fill-opacity=".92" />
  <path
    d="M42.8 45.8L45 43.6L47.2 45.8"
    stroke="#2563EB"
    stroke-width="2.4"
    stroke-linecap="round"
    stroke-linejoin="round"
  />
  <path
    d="M45 43.8V48"
    stroke="#2563EB"
    stroke-width="2.4"
    stroke-linecap="round"
  />
</svg>
